<svg width="1600" height="900" viewBox="0 0 1600 900" xmlns="http://www.w3.org/2000/svg">
  <defs>
    <linearGradient id="bg" x1="0" y1="0" x2="1" y2="1">
      <stop offset="0%" stop-color="#ecf5f6" />
      <stop offset="45%" stop-color="#d9eef2" />
      <stop offset="100%" stop-color="#f8fafc" />
    </linearGradient>
    <pattern id="hex" width="120" height="104" patternUnits="userSpaceOnUse" patternTransform="translate(0 0)">
      <path
        d="M60 0 L110 26 V78 L60 104 L10 78 V26 Z"
        fill="none"
        stroke="#7db1bf"
        stroke-width="2"
        opacity="0.4"
      />
    </pattern>
    <linearGradient id="panel" x1="0" y1="0" x2="1" y2="0">
      <stop offset="0%" stop-color="#0ea5a4" stop-opacity="0.1" />
      <stop offset="100%" stop-color="#0284c7" stop-opacity="0.12" />
    </linearGradient>
  </defs>
  <rect width="1600" height="900" fill="url(#bg)" />
  <rect width="1600" height="900" fill="url(#hex)" opacity="0.5" />

  <g opacity="0.35">
    <circle cx="1240" cy="320" r="140" fill="url(#panel)" />
    <circle cx="1220" cy="330" r="120" fill="none" stroke="#60a5fa" stroke-width="6" />
    <circle cx="1220" cy="330" r="72" fill="none" stroke="#22c55e" stroke-width="6" />
  </g>

  <g opacity="0.35" stroke="#0ea5a4" stroke-width="3">
    <line x1="260" y1="350" x2="420" y2="350" />
    <line x1="420" y1="350" x2="420" y2="460" />
    <line x1="260" y1="350" x2="260" y2="450" />
  </g>
  <g opacity="0.5">
    <rect x="210" y="310" width="100" height="120" rx="14" fill="#0f172a" opacity="0.12" />
    <rect x="230" y="330" width="60" height="12" rx="6" fill="#38bdf8" />
    <rect x="230" y="352" width="50" height="8" rx="4" fill="#94a3b8" />
    <rect x="230" y="374" width="70" height="8" rx="4" fill="#94a3b8" />
    <rect x="230" y="396" width="44" height="8" rx="4" fill="#94a3b8" />
  </g>
</svg>
